<svg width="1214" height="547" viewBox="0 0 1214 547" fill="none" xmlns="http://www.w3.org/2000/svg">
<rect x="28.4636" y="186.585" width="28.9734" height="28.9734" transform="rotate(31.9299 28.4636 186.585)" stroke="#B5EAD6"/>
<rect x="1186.64" y="231.03" width="28.9734" height="28.9734" transform="rotate(64.8658 1186.64 231.03)" stroke="#B5EAD6"/>
<rect x="1186.64" y="231.03" width="28.9734" height="28.9734" transform="rotate(64.8658 1186.64 231.03)" stroke="black" stroke-opacity="0.2"/>
<path d="M1159.5 423.468L1187.98 439.5L1159.5 455.532L1159.5 423.468Z" stroke="#B5EAD6"/>
<path d="M990.5 510.546L1019 527L990.5 543.454L990.5 510.546Z" stroke="#B5EAD6"/>
<path d="M183.5 525.532L155.019 509.5L183.5 493.468L183.5 525.532Z" stroke="#B5EAD6"/>
<path d="M28.75 411.521L0.999998 395.5L28.75 379.479L28.75 411.521Z" stroke="#B5EAD6"/>
<circle cx="145.5" cy="15.5" r="15" stroke="#B5EAD6"/>
<path d="M37.5 31.5C37.5 35.9473 34.114 39.5 30 39.5C25.886 39.5 22.5 35.9473 22.5 31.5C22.5 27.0527 25.886 23.5 30 23.5C34.114 23.5 37.5 27.0527 37.5 31.5Z" stroke="#B5EAD6"/>
<circle cx="1094.5" cy="45.5" r="15" stroke="#B5EAD6"/>
<path d="M1213.5 77C1213.5 81.114 1209.95 84.5 1205.5 84.5C1201.05 84.5 1197.5 81.114 1197.5 77C1197.5 72.886 1201.05 69.5 1205.5 69.5C1209.95 69.5 1213.5 72.886 1213.5 77Z" stroke="#B5EAD6"/>
</svg>
