<svg width="1367" height="747" viewBox="0 0 1367 747" fill="none" xmlns="http://www.w3.org/2000/svg">
<circle cx="1270" cy="402" r="290" stroke="#009846" stroke-opacity="0.14" stroke-width="110"/>
<rect x="37.267" y="274.683" width="21.1685" height="21.1685" rx="0.5" transform="rotate(30 37.267 274.683)" stroke="#37C88C"/>
<rect x="465.267" y="705.683" width="21.1685" height="21.1685" rx="0.5" transform="rotate(30 465.267 705.683)" stroke="#37C88C"/>
<circle cx="163.5" cy="14.5" r="14" stroke="#37C88C"/>
<circle cx="7" cy="56" r="6.5" stroke="#37C88C"/>
<circle cx="1051" cy="161" r="22.5" stroke="#37C88C"/>
<circle cx="1100" cy="252" r="11.5" stroke="#37C88C"/>
<path d="M740.887 59.4821L740.887 89.7929C740.887 90.1778 740.471 90.4184 740.137 90.226L713.887 75.0705C713.554 74.8781 713.554 74.3969 713.887 74.2045L740.137 59.049C740.471 58.8566 740.887 59.0972 740.887 59.4821Z" stroke="#37C88C"/>
<path d="M927.887 593.482L927.887 623.793C927.887 624.178 927.471 624.418 927.137 624.226L900.887 609.071C900.554 608.878 900.554 608.397 900.887 608.204L927.137 593.049C927.471 592.857 927.887 593.097 927.887 593.482Z" stroke="#37C88C"/>
<path d="M52.053 558.043L52.053 576.441C52.053 576.826 51.6363 577.066 51.303 576.874L35.3701 567.675C35.0367 567.482 35.0367 567.001 35.3701 566.809L51.303 557.61C51.6363 557.418 52.053 557.658 52.053 558.043Z" stroke="#37C88C"/>
</svg>
