<svg width="1375" height="813" viewBox="0 0 1375 813" fill="none" xmlns="http://www.w3.org/2000/svg">
<path d="M448.44 108.833C448.773 108.64 449.19 108.881 449.19 109.266L449.19 133.015C449.19 133.4 448.773 133.64 448.44 133.448L427.872 121.573C427.539 121.381 427.539 120.9 427.872 120.707L448.44 108.833Z" stroke="#AEE7D0"/>
<path d="M55.0813 469.766C55.4147 469.574 55.8313 469.814 55.8313 470.199L55.8313 503.601C55.8313 503.986 55.4147 504.226 55.0813 504.034L26.1546 487.333C25.8213 487.141 25.8213 486.66 26.1546 486.467L55.0813 469.766L54.8313 469.333L55.0813 469.766Z" stroke="#AEE7D0"/>
<path d="M232.304 560.224C232.637 560.031 233.054 560.272 233.054 560.657L233.054 594.058C233.054 594.443 232.637 594.684 232.304 594.491L203.377 577.79C203.044 577.598 203.044 577.117 203.377 576.924L232.304 560.224L232.054 559.791L232.304 560.224Z" stroke="#AEE7D0"/>
<path d="M1283.22 511.906C1283.56 512.098 1283.56 512.579 1283.22 512.772L1254.3 529.473C1253.96 529.665 1253.55 529.424 1253.55 529.04L1253.55 495.638C1253.55 495.253 1253.96 495.012 1254.3 495.205L1283.22 511.906L1283.47 511.473L1283.22 511.906Z" stroke="#AEE7D0"/>
<path d="M1104.16 624.516C1104.49 624.708 1104.49 625.189 1104.16 625.382L1075.23 642.083C1074.9 642.275 1074.48 642.035 1074.48 641.65L1074.48 608.248C1074.48 607.863 1074.9 607.623 1075.23 607.815L1104.16 624.516L1104.41 624.083L1104.16 624.516Z" stroke="#AEE7D0"/>
<path d="M888.165 65.1571C888.498 65.3496 888.498 65.8307 888.165 66.0231L859.238 82.724C858.905 82.9164 858.488 82.6759 858.488 82.291L858.488 48.8893C858.488 48.5044 858.905 48.2638 859.238 48.4563L888.165 65.1571L888.415 64.7241L888.165 65.1571Z" stroke="#AEE7D0"/>
<circle cx="122.763" cy="78.4579" r="17.0377" stroke="#AEE7D0"/>
<circle cx="462.44" cy="240.912" r="17.0377" stroke="#AEE7D0"/>
<circle cx="1186.1" cy="17.5377" r="17.0377" stroke="#AEE7D0"/>
<circle cx="1300.56" cy="48.9208" r="7.80731" stroke="#AEE7D0"/>
<circle cx="346.138" cy="272.295" r="7.80731" stroke="#AEE7D0"/>
<circle cx="8.30731" cy="109.841" r="7.80731" stroke="#AEE7D0"/>
<rect x="28.4576" y="271.892" width="29.0277" height="29.0277" rx="0.5" transform="rotate(26.5184 28.4576 271.892)" stroke="#AEE7D0"/>
<rect x="368.077" y="432.651" width="29.0277" height="29.0277" rx="0.5" transform="rotate(26.5184 368.077 432.651)" stroke="#AEE7D0"/>
<rect x="539.761" y="292.349" width="29.0277" height="29.0277" rx="0.5" transform="rotate(26.5184 539.761 292.349)" stroke="#AEE7D0"/>
<rect x="1280.65" y="255.418" width="29.0277" height="29.0277" rx="0.5" transform="rotate(65.9388 1280.65 255.418)" stroke="#AEE7D0"/>
<circle cx="1236.5" cy="537.5" r="225.5" stroke="#009846" stroke-width="100"/>
</svg>
